<svg xmlns="http://www.w3.org/2000/svg"><style>:root svg:not(:target){display:none}</style><svg fill="none" id="logo-berry"><path d="M14.408 18.444s-1.863 1.119-2.278 2.958c-.416 1.84 0 3.854 0 3.854s-2.922 1.206-2.922 4.996c0 3.791 2.465 4.863 2.465 4.863s.028 4.474 2.787 6.887c2.758 2.413 5.652 2.425 5.652 2.425s1.505 3.183 5.933 3.183 5.934-3.183 5.934-3.183 2.997-.438 5.652-2.425c2.655-1.986 2.582-6.887 2.582-6.887s2.67-1.07 2.67-4.863c0-3.791-2.923-4.995-2.923-4.995s.417-2.015 0-3.855c-.417-1.84-2.279-2.958-2.279-2.958" fill="#B22EC8"></path><path d="M40.046 24.142c0-7.741-6.276-9.921-14.017-9.921-7.74 0-14.017 2.18-14.017 9.921S18.288 38.16 26.029 38.16c7.74 0 14.017-6.276 14.017-14.017Z" fill="#B22EC8"></path><path d="M26.474 47.6s3.79-2.65 3.543-8.747c1.63-1.695 2.136-3.974.655-6.743 2.501-3.565 2.241-7.421-.751-10.345 1.233-1.78.588-3.32-.806-4.479 0 0 4.012 1.968 7.085-.845 0 0 6.459 4.644 3.76 8.816 0 0 7.131 4.82.253 9.858 0 0 1.004 7.681-8.06 9.28 0 0-2.387 2.702-5.678 3.205Z" fill="#6A107A"></path><path d="M40.286 8.134c-3.084 14.392-12.549 9.485-13.835 6.954-1.286-2.531-.044-12.609 13.835-6.955v0Z" stroke="#000" stroke-width="2" stroke-miterlimit="10" stroke-linecap="round" stroke-linejoin="round"></path><path d="M32.913 11.046c-2.26.868-5.156 2.264-6.438 4.084m-14.67-6.996c3.083 14.392 12.548 9.485 13.834 6.954 1.285-2.531.043-12.609-13.835-6.955v0Z" stroke="#000" stroke-width="2" stroke-miterlimit="10" stroke-linecap="round" stroke-linejoin="round"></path><path d="M19.177 11.046c2.26.868 5.155 2.264 6.438 4.084m-11.207 3.314s-1.863 1.119-2.278 2.958c-.416 1.84 0 3.854 0 3.854s-2.922 1.206-2.922 4.996c0 3.791 2.465 4.863 2.465 4.863s.028 4.474 2.787 6.887c2.758 2.413 5.652 2.425 5.652 2.425s1.505 3.183 5.933 3.183 5.934-3.183 5.934-3.183 2.997-.438 5.652-2.425c2.655-1.986 2.582-6.887 2.582-6.887s2.67-1.07 2.67-4.863c0-3.791-2.923-4.995-2.923-4.995s.417-2.015 0-3.855c-.417-1.84-2.279-2.958-2.279-2.958" stroke="#000" stroke-width="2" stroke-miterlimit="10" stroke-linecap="round" stroke-linejoin="round"></path><path d="M30.509 21.288s-1.89 1.998-4.22 1.998m-4.383-1.998s1.89 1.998 4.221 1.998m10.029 5.26c0 2.088-1.793 3.78-4.003 3.78m-4.157-3.78c0 2.088 1.792 3.78 4.003 3.78m-7.528-3.78c0 2.088-1.793 3.78-4.004 3.78m-4.157-3.78c0 2.088 1.793 3.78 4.004 3.78m9.95 6.574c-.753 1.004-2.281 1.69-4.044 1.69m-4.307-1.812c.718 1.069 2.299 1.812 4.133 1.812m-4.17-1.554c0 .896-.555 1.704-1.443 2.27m9.875-2.27c0 .977.66 1.85 1.69 2.418" stroke="#000" stroke-width="2" stroke-miterlimit="10" stroke-linecap="round" stroke-linejoin="round"></path><path d="M16.908 30.819c0 1.708-1.2 3.152-2.847 3.62m4.003-13.177c0 2.235-1.792 4.048-4.004 4.048m19.432-4.048c0 2.235 1.792 4.048 4.004 4.048M35.57 30.82c0 1.632 1.095 3.022 2.63 3.553" stroke="#000" stroke-width="2" stroke-miterlimit="10" stroke-linecap="round" stroke-linejoin="round"></path></svg><svg id="logo-leaves"><path d="M40.285 8.134c-3.083 14.392-12.548 9.485-13.834 6.954-1.286-2.531-.044-12.609 13.834-6.955Z"></path><path d="M11.804 8.134c3.084 14.392 12.549 9.485 13.835 6.954 1.285-2.531.043-12.609-13.835-6.955Z"></path></svg><svg id="logo-name"><path d="M9.48 31.2c-.614 0-.974-.307-1.08-.92a22.118 22.118 0 0 1-.2-2.88A431.6 431.6 0 0 1 8 21c-.027-2.24-.04-3.867-.04-4.88a3.443 3.443 0 0 0-1.4 1.12c-.32.453-.627 1.04-.92 1.76-.48 1.307-.72 2.6-.72 3.88v1c0 .16-.014.653-.04 1.48a26.92 26.92 0 0 1-.24 2.72c-.16 1.333-.827 2.333-2 3-.187.107-.427.16-.72.16-.347 0-.64-.08-.88-.24-.214-.187-.28-.44-.2-.76.053-.187.133-.32.24-.4.106-.08.253-.16.44-.24.213-.08.373-.16.48-.24.4-.373.6-.88.6-1.52l.04-3.36c.053-1.307.12-2.307.2-3 .08-.72.28-1.547.6-2.48.106-.347.36-.893.76-1.64.4-.773.693-1.267.88-1.48-1.414-.693-2.4-1.56-2.96-2.6-.534-1.04-.8-2.56-.8-4.56 0-1.573.28-3.12.84-4.64.56-1.493 1.48-2.44 2.76-2.84l1.76-.6c.24-.107.506-.16.8-.16.56 0 1.2.24 1.92.72.453.267.68.707.68 1.32-.16 2.24-.24 3.933-.24 5.08V16.48c0 2.827.026 4.96.08 6.4.026 1.093.066 2.067.12 2.92.053.853.093 1.56.12 2.12l.12 2.2v.24c0 .347-.054.573-.16.68-.107.107-.32.16-.64.16ZM7.8 2.16a22.2 22.2 0 0 1-.92.32c-.454.16-.854.347-1.2.56-.4.187-.774.587-1.12 1.2a8.952 8.952 0 0 0-.76 1.88c-.187.667-.267 1.173-.24 1.52l.08 1.76c0 .827.013 1.48.04 1.96.026.747.24 1.373.64 1.88.426.48 1.013.813 1.76 1 .293.08.626.2 1 .36.4.133.693.24.88.32L7.8 2.16Zm7.637 29.16c-.027-.107-.08-.293-.16-.56a2.057 2.057 0 0 1-.04-.68c.053-3.093.133-5.4.24-6.92.026-.56.04-1.387.04-2.48 0-1.973-.094-4.36-.28-7.16-.16-3.413-.24-6-.24-7.76 0-.4.16-.76.48-1.08.32-.32.706-.48 1.16-.48 1.52 0 2.84.12 3.96.36.533.107.88.293 1.04.56.16.24.213.653.16 1.24-.374.24-.76.36-1.16.36a3.37 3.37 0 0 1-.6-.08c-.24-.053-.88-.107-1.92-.16h-.08c-.374 0-.56.2-.56.6-.134 3.867-.2 6.067-.2 6.6.053 2.773.106 4.867.16 6.28 0 .187.013.413.04.68.026.267.026.493 0 .68-.08 1.227-.12 2.52-.12 3.88 0 2.213.04 3.76.12 4.64-.027.587-.12.987-.28 1.2-.16.24-.454.36-.88.36-.107 0-.4-.027-.88-.08Zm13.773.44c-.694 0-1.334-.227-1.92-.68-.587-.427-1.067-1.013-1.44-1.76-.774-1.627-1.254-3.4-1.44-5.32-.24-1.813-.36-3.56-.36-5.24 0-.32.013-.587.04-.8v-.72c0-.133-.014-.2-.04-.2v-.72l.04-2.8c.026-.853.133-2.213.32-4.08.133-1.28.44-2.52.92-3.72.187-.533.427-.933.72-1.2.293-.293.627-.44 1-.44 1.066 0 2.026.2 2.88.6a5.868 5.868 0 0 1 2.16 1.6c.533.667.986 1.493 1.36 2.48.373.96.64 1.987.8 3.08.16 1.12.24 2.307.24 3.56v.32c0 .827.013 1.573.04 2.24l.04 2.28c0 7.68-1.787 11.52-5.36 11.52Zm-.16-1.68c.48 0 .92-.187 1.32-.56.4-.4.706-.933.92-1.6.507-1.36.813-2.827.92-4.4.133-1.36.2-2.533.2-3.52 0-1.2-.093-2.773-.28-4.72-.16-2.053-.24-3.587-.24-4.6v-.72c-.053-1.013-.4-1.893-1.04-2.64-.614-.747-1.373-1.12-2.28-1.12-.907 0-1.507.52-1.8 1.56-.267.827-.4 1.893-.4 3.2 0 .507.013.933.04 1.28v1.08l-.08 1.84c-.053.56-.08 1.173-.08 1.84 0 1.44.04 2.867.12 4.28.107 2 .373 3.947.8 5.84.426 1.973 1.053 2.96 1.88 2.96Zm23.843 5.84c-.213.053-.373.08-.48.08-.32 0-.547-.2-.68-.6-.107-.32-.16-.72-.16-1.2l.04-2.76c0-.16-.013-.307-.04-.44l-.08-.4h-4.6c.267 0-.373.133-1.92.4-1.52.24-2.707.4-3.56.48l-1.8.16-2 .2v.88c.027.347.027.76 0 1.24v.2c0 .427-.107.747-.32.96-.213.213-.413.32-.6.32-.107 0-.267-.053-.48-.16-.48-.347-.747-.827-.8-1.44l-.12-2.92c-.053-1.04.373-1.56 1.28-1.56.507-.027.907-.16 1.2-.4.293-.24.64-.613 1.04-1.12.4-.533.707-1.12.92-1.76.24-.667.467-1.467.68-2.4.24-1.013.413-2 .52-2.96.107-.96.24-2.333.4-4.12.24-2.8.36-5.613.36-8.44l-.04-2.24c0-.507.147-.92.44-1.24.293-.347.693-.52 1.2-.52.16 0 .28.013.36.04 1.227.213 2.227.347 3 .4h.2c.347 0 .547-.067.6-.2.24-.32.533-.48.88-.48.24 0 .453.053.64.16.427.16.707.56.84 1.2l-.2 6.84c0 3.707.013 6.48.04 8.32 0 .96.027 2.427.08 4.4l.04 2.2c0 .213.013.413.04.6l.08.56c.533.053.933.08 1.2.08.213 0 .373-.013.48-.04a1.942 1.942 0 0 1 1.56.44c.48.347.72.8.72 1.36 0 .72-.053 1.8-.16 3.24 0 .373-.027.907-.08 1.6-.053.56-.293.907-.72 1.04Zm-11.52-6.36c1.493-.133 2.667-.253 3.52-.36a17.48 17.48 0 0 0 2.6-.6c.267-3.227.4-6.68.4-10.36 0-3.413-.133-7.16-.4-11.24-.693-.027-1.987-.093-3.88-.2l-.04 1.88c-.213 4.107-.36 7.173-.44 9.2a33.269 33.269 0 0 1-1.56 8.96c-.053.16-.173.56-.36 1.2a4.45 4.45 0 0 1-.76 1.6l.92-.08Zm22.795 1.8c-.614 0-1.067-.093-1.36-.28-.294-.187-.44-.533-.44-1.04 0-.8-.134-2.16-.4-4.08l-.16-.84-3.96-.6c-.16.613-.387 1.853-.68 3.72-.16 1.307-.414 2.173-.76 2.6-.187.24-.454.36-.8.36a1.5 1.5 0 0 1-.88-.28c-.267-.213-.4-.467-.4-.76l.08-.2.04-.16c1.76-6.853 3.093-13.613 4-20.28 0-.107.013-.28.04-.52.026-.267.053-.64.08-1.12.08-.987.16-1.773.24-2.36.106-.587.266-1.027.48-1.32h1.36c.373 0 .693.093.96.28.266.16.4.4.4.72 0 2.027.28 5.04.84 9.04.533 4.107.8 6.987.8 8.64 0 .16.066.573.2 1.24.133.613.2 1.013.2 1.2 0 .187.133.987.4 2.4.24 1.28.36 2.107.36 2.48v.04c0 .587-.214.96-.64 1.12Zm-2.64-7.68c-.08-.4-.12-.893-.12-1.48 0-2.4-.214-5.467-.64-9.2l-.4-4.16c-1.147 6.267-1.934 11-2.36 14.2.4.267 1.573.48 3.52.64Z"></path></svg><svg id="telegram"><path d="M18.16 2.81a1.24 1.24 0 0 0-1.26-.2L2.57 8.42a1.23 1.23 0 0 0 .06 2.3l3.09 1.07 1.68 5.54.01.03c.02.05.05.09.08.12.05.06.11.1.18.12l.02.01h.2l.02-.01a.4.4 0 0 0 .15-.1l.02-.01 2.4-2.66L14 17.54a1.24 1.24 0 0 0 1.96-.73L18.59 4a1.23 1.23 0 0 0-.42-1.19ZM8.27 12.84l-.56 2.75-1.18-3.9 5.85-3.05-4 4a.4.4 0 0 0-.1.2Zm6.91 3.81a.43.43 0 0 1-.28.32.42.42 0 0 1-.4-.06l-3.82-2.95a.4.4 0 0 0-.54.05l-1.68 1.85.57-2.75 5.75-5.75a.4.4 0 0 0-.47-.64l-8.29 4.32L2.9 9.95a.42.42 0 0 1-.29-.39.43.43 0 0 1 .27-.41l14.33-5.8a.43.43 0 0 1 .45.08.42.42 0 0 1 .14.41l-2.6 12.81Z"></path></svg><svg id="vk"><g clip-path="url(#vk_0)"><path d="M1.4 5.18c0-.5.34-.78 1.03-.82l2.64.02c.18 0 .3.07.36.22.27.74.58 1.38.91 1.91.34.54.78 1.16 1.33 1.86.04.09.12.13.23.13.08 0 .14-.03.2-.1l.04-.16.02-2.56c0-.18-.05-.3-.15-.36-.1-.06-.29-.1-.56-.13-.21-.03-.32-.14-.32-.33 0-.03 0-.06.02-.08.25-.64.96-.97 2.13-.97l1-.01c.44 0 .82.1 1.11.28.3.19.45.48.45.89v3.36c.08.05.16.07.23.07.18 0 .33-.09.46-.27 1.3-1.51 2-2.53 2.11-3.04l.04-.08c.08-.15.22-.27.4-.38.2-.11.36-.18.5-.22.05-.02.1-.03.16-.03h2.75l.18.01c.24 0 .42.1.55.28a.5.5 0 0 1 .1.2 1.27 1.27 0 0 1 .04.32v.1c-.08.4-.29.84-.63 1.3-.33.46-.76.95-1.28 1.48-.52.54-.85.89-.98 1.06-.1.11-.16.22-.16.32 0 .08.05.17.14.27l2.6 2.72c.14.16.2.33.2.52 0 .22-.1.41-.31.56-.22.15-.47.23-.77.25l-.3.02H15.1l-.07.01c-.26 0-.5-.1-.73-.28l-1.66-1.75a.9.9 0 0 0-.25-.19 20.54 20.54 0 0 0-.36 1.32l-.05.25a.9.9 0 0 1-.75.62l-.25.02H9.25c-.99 0-1.97-.38-2.94-1.13a11.75 11.75 0 0 1-2.64-2.9A26.58 26.58 0 0 1 1.5 5.6a1.01 1.01 0 0 1-.09-.42ZM12.07 9a1.4 1.4 0 0 1-.68-.17c-.2-.12-.3-.27-.3-.47v-3.4c0-.2-.06-.34-.18-.42-.11-.09-.32-.13-.62-.13l-1 .03c-.52 0-.9.07-1.16.22.52.21.78.54.78 1v2.61a.85.85 0 0 1-.36.62c-.21.16-.45.24-.7.24a.92.92 0 0 1-.82-.43 14.94 14.94 0 0 1-2.06-3.3L4.8 5H2.45c-.16 0-.24 0-.26.02-.02.02-.03.06-.03.13 0 .08.01.18.04.28l.37.83c1 2.14 2.08 3.82 3.24 5.05 1.17 1.24 2.31 1.85 3.44 1.85h1.77c.07 0 .12-.01.16-.05.04-.03.07-.1.09-.2l.03-.15.34-1.3c.1-.18.18-.3.25-.35a.7.7 0 0 1 .46-.17c.29 0 .58.15.87.43l1.51 1.6c.1.13.2.2.3.2h2.93c.36 0 .53-.08.53-.23 0-.05-.01-.1-.05-.15l-2.57-2.67a.95.95 0 0 1-.3-.67c0-.24.09-.46.28-.68.15-.2.45-.52.9-.98.44-.46.83-.9 1.16-1.29.33-.4.55-.76.65-1.09l.06-.19a.2.2 0 0 1-.02-.1.3.3 0 0 0-.02-.1H15.8a.97.97 0 0 0-.43.26l-.1.28a14.7 14.7 0 0 1-2.33 3.15c-.25.2-.54.3-.87.3Z"></path></g><defs><clipPath id="vk_0"><path fill="#fff" transform="translate(.4 .8)" d="M0 0h19.2v15.09H0z"></path></clipPath></defs></svg><svg id="youtube"><path d="m12.56 9.75-3.6-2.4a.3.3 0 0 0-.46.25v4.8a.3.3 0 0 0 .16.26c.04.03.09.04.14.04.06 0 .12-.02.16-.05l3.6-2.4a.3.3 0 0 0 0-.5ZM9.1 11.84V8.16L11.86 10 9.1 11.84Zm8.59-6.13a1.53 1.53 0 0 0-.91-1.02c-2.54-.98-6.6-.96-6.78-.96-.17 0-4.25-.02-6.78.96a1.53 1.53 0 0 0-.9 1.02c-.2.73-.42 2.06-.42 4.29s.22 3.56.41 4.29a1.53 1.53 0 0 0 .91 1.02c2.53.97 6.6.96 6.78.96h.05c.52 0 4.32-.03 6.73-.96a1.53 1.53 0 0 0 .9-1.02c.2-.73.42-2.06.42-4.29s-.23-3.56-.41-4.29Zm-.59 8.43a.9.9 0 0 1-.54.6c-2.43.95-6.52.93-6.56.93-.05 0-4.13.02-6.56-.92a.9.9 0 0 1-.54-.61c-.18-.7-.4-1.98-.4-4.14 0-2.16.22-3.44.4-4.14a.9.9 0 0 1 .54-.6c2.43-.95 6.51-.93 6.56-.93.04 0 4.13-.02 6.56.92a.9.9 0 0 1 .54.61c.18.7.4 1.98.4 4.14 0 2.16-.22 3.44-.4 4.14Z"></path></svg></svg>