<svg xmlns="http://www.w3.org/2000/svg" width="60" height="60" fill="none"><path d="M50.13 27.5H9.87a2.37 2.37 0 0 0-2.37 2.38v.25a2.37 2.37 0 0 0 2.38 2.37h40.24a2.37 2.37 0 0 0 2.38-2.38v-.25a2.37 2.37 0 0 0-2.38-2.37ZM50.13 40H9.87a2.37 2.37 0 0 0-2.37 2.38v.24A2.37 2.37 0 0 0 9.88 45h40.24a2.37 2.37 0 0 0 2.38-2.38v-.24A2.37 2.37 0 0 0 50.12 40ZM50.13 15H9.87a2.37 2.37 0 0 0-2.37 2.38v.25A2.37 2.37 0 0 0 9.88 20h40.24a2.37 2.37 0 0 0 2.38-2.38v-.25A2.37 2.37 0 0 0 50.12 15Z" fill="#0F805D"/></svg>
