<svg xmlns="http://www.w3.org/2000/svg" width="20" height="24" fill="none"><path d="M10.11 0h-.07L0 .99v17.38L10.04 24 20 18.37V.99L10.11 0Zm8.48 8.52-8.55-4.79v-.07h-.08l-.07-.07v.07L1.4 8.52V2.18l8.55-.84 8.63.84v6.34ZM9.96 4.79l8.55 4.71-3.34 1.83-5.28-2.95v.98l4.39 2.46-.67.36-3.72-2.12v.99l2.82 1.62-.6.35-2.22-1.27v.99l1.41.77-1.34.78L1.5 9.57 9.96 4.8Zm-8.55 5.84L9.9 15.4v.7L4 12.82v.98l5.95 3.38v.78l-5.95-3.31v.98L9.96 19 16 15.55V11.9l2.52-1.4v7.03l-8.55 4.86-8.55-4.78v-6.97Z" fill="#000"/></svg>