<svg xmlns="http://www.w3.org/2000/svg" width="20" height="20" fill="none"><path d="M18.16 2.81a1.24 1.24 0 0 0-1.26-.2L2.57 8.42a1.23 1.23 0 0 0 .06 2.3l3.09 1.07 1.68 5.54.01.03c.02.05.05.09.08.12.05.06.11.1.18.12l.02.01h.2l.02-.01a.4.4 0 0 0 .15-.1l.02-.01 2.4-2.66L14 17.54a1.24 1.24 0 0 0 1.96-.73L18.59 4a1.23 1.23 0 0 0-.42-1.19ZM8.27 12.84l-.56 2.75-1.18-3.9 5.85-3.05-4 4a.4.4 0 0 0-.1.2Zm6.91 3.81a.43.43 0 0 1-.28.32.42.42 0 0 1-.4-.06l-3.82-2.95a.4.4 0 0 0-.54.05l-1.68 1.85.57-2.75 5.75-5.75a.4.4 0 0 0-.47-.64l-8.29 4.32L2.9 9.95a.42.42 0 0 1-.29-.39.43.43 0 0 1 .27-.41l14.33-5.8a.43.43 0 0 1 .45.08.42.42 0 0 1 .14.41l-2.6 12.81Z"/></svg>
