<svg xmlns="http://www.w3.org/2000/svg" width="25" height="24" fill="none"><path d="M12.5 24a.92.92 0 0 1-.6-.22.7.7 0 0 1-.25-.53v-1.94l-1.11.97a.92.92 0 0 1-.6.22.92.92 0 0 1-.62-.22.7.7 0 0 1-.25-.53c0-.2.1-.39.26-.53l2.32-2.03v-5.9L5.8 16.25l-.85 2.78c-.06.2-.2.35-.4.45-.2.1-.43.13-.65.08a.85.85 0 0 1-.52-.35.67.67 0 0 1-.08-.57l.4-1.32-1.92.96c-.2.1-.43.13-.65.08A.85.85 0 0 1 .62 18a.67.67 0 0 1-.08-.57c.06-.2.2-.35.4-.45L2.85 16l-1.52-.36a.91.91 0 0 1-.3-.13.8.8 0 0 1-.22-.22.66.66 0 0 1-.08-.57c.02-.1.07-.18.14-.26a.83.83 0 0 1 .25-.2.94.94 0 0 1 .65-.07l3.17.74L10.8 12 4.96 9.06l-3.18.74a.97.97 0 0 1-.64-.08.77.77 0 0 1-.4-.46.67.67 0 0 1 .09-.56c.11-.17.3-.3.51-.35l1.52-.36-1.93-.97a.84.84 0 0 1-.25-.19.72.72 0 0 1-.15-.26A.66.66 0 0 1 .61 6a.8.8 0 0 1 .23-.22.98.98 0 0 1 .95-.05l1.92.96-.4-1.32a.66.66 0 0 1 .07-.58.79.79 0 0 1 .23-.22.98.98 0 0 1 .96-.05c.1.05.18.12.25.2.07.08.12.17.14.26l.85 2.78 5.84 2.94V4.81L9.33 2.78a.75.75 0 0 1-.2-.24.67.67 0 0 1 0-.58c.05-.09.11-.17.2-.24a.88.88 0 0 1 .27-.16.97.97 0 0 1 .94.16l1.1.97V.75c0-.2.1-.39.26-.53a.92.92 0 0 1 .6-.22c.23 0 .45.08.61.22a.7.7 0 0 1 .25.53v1.94l1.11-.97a.92.92 0 0 1 .6-.22c.24 0 .45.08.62.22a.7.7 0 0 1 .25.53c0 .2-.1.39-.26.53l-2.32 2.03v5.9l5.83-2.95.85-2.78c.06-.2.2-.35.4-.45.2-.1.44-.13.66-.08.22.05.4.18.52.35.11.17.14.38.08.57l-.4 1.32 1.92-.96c.2-.1.43-.13.65-.08.22.06.4.18.52.35.1.17.14.38.08.57-.06.2-.2.35-.4.45L22.16 8l1.52.36c.22.05.4.18.52.35.11.17.14.38.09.57-.06.2-.2.35-.4.45-.2.1-.44.13-.66.08l-3.17-.74L14.22 12l5.83 2.94 3.17-.74a.97.97 0 0 1 .65.08c.2.1.35.26.4.45.06.2.03.4-.08.57-.12.17-.3.3-.52.35l-1.52.36 1.92.97c.2.1.34.26.4.45.06.2.03.4-.09.57-.11.17-.3.3-.51.35a.97.97 0 0 1-.65-.08l-1.92-.96.4 1.32a.66.66 0 0 1-.08.58.79.79 0 0 1-.22.22.98.98 0 0 1-.96.05.83.83 0 0 1-.25-.2.71.71 0 0 1-.15-.26l-.85-2.78-5.83-2.94v5.89l2.32 2.03a.7.7 0 0 1 .25.53.7.7 0 0 1-.25.53.92.92 0 0 1-.6.22.92.92 0 0 1-.61-.22l-1.11-.97v1.94a.7.7 0 0 1-.25.53.92.92 0 0 1-.6.22Z" fill="#0F805D"/></svg>